<svg width="224" height="194" viewBox="0 0 224 194" fill="none" xmlns="http://www.w3.org/2000/svg">
<g opacity="0.5">
<path opacity="0.5" d="M14.9333 7.46154C14.9333 3.34065 11.5876 0 7.46667 0C3.34577 0 0 3.34065 0 7.46154C0 11.5824 3.34577 14.9231 7.46667 14.9231C11.5876 14.9231 14.9333 11.5824 14.9333 7.46154Z" fill="#F0C300"/>
<path opacity="0.5" d="M44.8 7.46154C44.8 3.34065 41.4542 0 37.3333 0C33.2124 0 29.8667 3.34065 29.8667 7.46154C29.8667 11.5824 33.2124 14.9231 37.3333 14.9231C41.4542 14.9231 44.8 11.5824 44.8 7.46154Z" fill="#F0C300"/>
<path opacity="0.5" d="M59.7333 7.46154C59.7333 3.34065 63.0791 0 67.2 0C71.3209 0 74.6667 3.34065 74.6667 7.46154C74.6667 11.5824 71.3209 14.9231 67.2 14.9231C63.0791 14.9231 59.7333 11.5824 59.7333 7.46154Z" fill="#F0C300"/>
<path opacity="0.5" d="M104.533 7.46154C104.533 3.34065 101.188 0 97.0667 0C92.9458 0 89.6 3.34065 89.6 7.46154C89.6 11.5824 92.9458 14.9231 97.0667 14.9231C101.188 14.9231 104.533 11.5824 104.533 7.46154Z" fill="#F0C300"/>
<path opacity="0.5" d="M119.467 7.46154C119.467 3.34065 122.812 0 126.933 0C131.054 0 134.4 3.34065 134.4 7.46154C134.4 11.5824 131.054 14.9231 126.933 14.9231C122.812 14.9231 119.467 11.5824 119.467 7.46154Z" fill="#F0C300"/>
<path opacity="0.5" d="M164.267 7.46154C164.267 3.34065 160.921 0 156.8 0C152.679 0 149.333 3.34065 149.333 7.46154C149.333 11.5824 152.679 14.9231 156.8 14.9231C160.921 14.9231 164.267 11.5824 164.267 7.46154Z" fill="#F0C300"/>
<path opacity="0.5" d="M179.2 7.46154C179.2 3.34065 182.546 0 186.667 0C190.788 0 194.133 3.34065 194.133 7.46154C194.133 11.5824 190.788 14.9231 186.667 14.9231C182.546 14.9231 179.2 11.5824 179.2 7.46154Z" fill="#F0C300"/>
<path opacity="0.5" d="M224 7.46154C224 3.34065 220.654 0 216.533 0C212.412 0 209.067 3.34065 209.067 7.46154C209.067 11.5824 212.412 14.9231 216.533 14.9231C220.654 14.9231 224 11.5824 224 7.46154Z" fill="#F0C300"/>
<path opacity="0.5" d="M0 37.3077C0 33.1868 3.34577 29.8462 7.46667 29.8462C11.5876 29.8462 14.9333 33.1868 14.9333 37.3077C14.9333 41.4286 11.5876 44.7692 7.46667 44.7692C3.34577 44.7692 0 41.4286 0 37.3077Z" fill="#F0C300"/>
<path opacity="0.5" d="M44.8 37.3077C44.8 33.1868 41.4542 29.8462 37.3333 29.8462C33.2124 29.8462 29.8667 33.1868 29.8667 37.3077C29.8667 41.4286 33.2124 44.7692 37.3333 44.7692C41.4542 44.7692 44.8 41.4286 44.8 37.3077Z" fill="#F0C300"/>
<path opacity="0.5" d="M59.7333 37.3077C59.7333 33.1868 63.0791 29.8462 67.2 29.8462C71.3209 29.8462 74.6667 33.1868 74.6667 37.3077C74.6667 41.4286 71.3209 44.7692 67.2 44.7692C63.0791 44.7692 59.7333 41.4286 59.7333 37.3077Z" fill="#F0C300"/>
<path opacity="0.5" d="M104.533 37.3077C104.533 33.1868 101.188 29.8462 97.0667 29.8462C92.9458 29.8462 89.6 33.1868 89.6 37.3077C89.6 41.4286 92.9458 44.7692 97.0667 44.7692C101.188 44.7692 104.533 41.4286 104.533 37.3077Z" fill="#F0C300"/>
<path opacity="0.5" d="M119.467 37.3077C119.467 33.1868 122.812 29.8462 126.933 29.8462C131.054 29.8462 134.4 33.1868 134.4 37.3077C134.4 41.4286 131.054 44.7692 126.933 44.7692C122.812 44.7692 119.467 41.4286 119.467 37.3077Z" fill="#F0C300"/>
<path opacity="0.5" d="M164.267 37.3077C164.267 33.1868 160.921 29.8462 156.8 29.8462C152.679 29.8462 149.333 33.1868 149.333 37.3077C149.333 41.4286 152.679 44.7692 156.8 44.7692C160.921 44.7692 164.267 41.4286 164.267 37.3077Z" fill="#F0C300"/>
<path opacity="0.5" d="M179.2 37.3077C179.2 33.1868 182.546 29.8462 186.667 29.8462C190.788 29.8462 194.133 33.1868 194.133 37.3077C194.133 41.4286 190.788 44.7692 186.667 44.7692C182.546 44.7692 179.2 41.4286 179.2 37.3077Z" fill="#F0C300"/>
<path opacity="0.5" d="M224 37.3077C224 33.1868 220.654 29.8462 216.533 29.8462C212.412 29.8462 209.067 33.1868 209.067 37.3077C209.067 41.4286 212.412 44.7692 216.533 44.7692C220.654 44.7692 224 41.4286 224 37.3077Z" fill="#F0C300"/>
<path opacity="0.5" d="M0 67.1538C0 63.033 3.34577 59.6923 7.46667 59.6923C11.5876 59.6923 14.9333 63.033 14.9333 67.1538C14.9333 71.2747 11.5876 74.6154 7.46667 74.6154C3.34577 74.6154 0 71.2747 0 67.1538Z" fill="#F0C300"/>
<path opacity="0.5" d="M44.8 67.1538C44.8 63.033 41.4542 59.6923 37.3333 59.6923C33.2124 59.6923 29.8667 63.033 29.8667 67.1538C29.8667 71.2747 33.2124 74.6154 37.3333 74.6154C41.4542 74.6154 44.8 71.2747 44.8 67.1538Z" fill="#F0C300"/>
<path opacity="0.5" d="M59.7333 67.1538C59.7333 63.033 63.0791 59.6923 67.2 59.6923C71.3209 59.6923 74.6667 63.033 74.6667 67.1538C74.6667 71.2747 71.3209 74.6154 67.2 74.6154C63.0791 74.6154 59.7333 71.2747 59.7333 67.1538Z" fill="#F0C300"/>
<path opacity="0.5" d="M104.533 67.1538C104.533 63.033 101.188 59.6923 97.0667 59.6923C92.9458 59.6923 89.6 63.033 89.6 67.1538C89.6 71.2747 92.9458 74.6154 97.0667 74.6154C101.188 74.6154 104.533 71.2747 104.533 67.1538Z" fill="#F0C300"/>
<path opacity="0.5" d="M119.467 67.1538C119.467 63.033 122.812 59.6923 126.933 59.6923C131.054 59.6923 134.4 63.033 134.4 67.1538C134.4 71.2747 131.054 74.6154 126.933 74.6154C122.812 74.6154 119.467 71.2747 119.467 67.1538Z" fill="#F0C300"/>
<path opacity="0.5" d="M164.267 67.1538C164.267 63.033 160.921 59.6923 156.8 59.6923C152.679 59.6923 149.333 63.033 149.333 67.1538C149.333 71.2747 152.679 74.6154 156.8 74.6154C160.921 74.6154 164.267 71.2747 164.267 67.1538Z" fill="#F0C300"/>
<path opacity="0.5" d="M179.2 67.1538C179.2 63.033 182.546 59.6923 186.667 59.6923C190.788 59.6923 194.133 63.033 194.133 67.1538C194.133 71.2747 190.788 74.6154 186.667 74.6154C182.546 74.6154 179.2 71.2747 179.2 67.1538Z" fill="#F0C300"/>
<path opacity="0.5" d="M224 67.1538C224 63.033 220.654 59.6923 216.533 59.6923C212.412 59.6923 209.067 63.033 209.067 67.1538C209.067 71.2747 212.412 74.6154 216.533 74.6154C220.654 74.6154 224 71.2747 224 67.1538Z" fill="#F0C300"/>
<path opacity="0.5" d="M0 97C0 92.8791 3.34578 89.5385 7.46667 89.5385C11.5876 89.5385 14.9333 92.8791 14.9333 97C14.9333 101.121 11.5876 104.462 7.46667 104.462C3.34578 104.462 0 101.121 0 97Z" fill="#F0C300"/>
<path opacity="0.5" d="M44.8 97C44.8 92.8791 41.4542 89.5385 37.3333 89.5385C33.2124 89.5385 29.8667 92.8791 29.8667 97C29.8667 101.121 33.2124 104.462 37.3333 104.462C41.4542 104.462 44.8 101.121 44.8 97Z" fill="#F0C300"/>
<path opacity="0.5" d="M59.7333 97C59.7333 92.8791 63.0791 89.5385 67.2 89.5385C71.3209 89.5385 74.6667 92.8791 74.6667 97C74.6667 101.121 71.3209 104.462 67.2 104.462C63.0791 104.462 59.7333 101.121 59.7333 97Z" fill="#F0C300"/>
<path opacity="0.5" d="M104.533 97C104.533 92.8791 101.188 89.5385 97.0667 89.5385C92.9458 89.5385 89.6 92.8791 89.6 97C89.6 101.121 92.9458 104.462 97.0667 104.462C101.188 104.462 104.533 101.121 104.533 97Z" fill="#F0C300"/>
<path opacity="0.5" d="M119.467 97C119.467 92.8791 122.812 89.5385 126.933 89.5385C131.054 89.5385 134.4 92.8791 134.4 97C134.4 101.121 131.054 104.462 126.933 104.462C122.812 104.462 119.467 101.121 119.467 97Z" fill="#F0C300"/>
<path opacity="0.5" d="M164.267 97C164.267 92.8791 160.921 89.5385 156.8 89.5385C152.679 89.5385 149.333 92.8791 149.333 97C149.333 101.121 152.679 104.462 156.8 104.462C160.921 104.462 164.267 101.121 164.267 97Z" fill="#F0C300"/>
<path opacity="0.5" d="M179.2 97C179.2 92.8791 182.546 89.5385 186.667 89.5385C190.788 89.5385 194.133 92.8791 194.133 97C194.133 101.121 190.788 104.462 186.667 104.462C182.546 104.462 179.2 101.121 179.2 97Z" fill="#F0C300"/>
<path opacity="0.5" d="M224 97C224 92.8791 220.654 89.5385 216.533 89.5385C212.412 89.5385 209.067 92.8791 209.067 97C209.067 101.121 212.412 104.462 216.533 104.462C220.654 104.462 224 101.121 224 97Z" fill="#F0C300"/>
<path opacity="0.5" d="M0 126.846C0 122.725 3.34577 119.385 7.46667 119.385C11.5876 119.385 14.9333 122.725 14.9333 126.846C14.9333 130.967 11.5876 134.308 7.46667 134.308C3.34577 134.308 0 130.967 0 126.846Z" fill="#F0C300"/>
<path opacity="0.5" d="M44.8 126.846C44.8 122.725 41.4542 119.385 37.3333 119.385C33.2124 119.385 29.8667 122.725 29.8667 126.846C29.8667 130.967 33.2124 134.308 37.3333 134.308C41.4542 134.308 44.8 130.967 44.8 126.846Z" fill="#F0C300"/>
<path opacity="0.5" d="M59.7333 126.846C59.7333 122.725 63.0791 119.385 67.2 119.385C71.3209 119.385 74.6667 122.725 74.6667 126.846C74.6667 130.967 71.3209 134.308 67.2 134.308C63.0791 134.308 59.7333 130.967 59.7333 126.846Z" fill="#F0C300"/>
<path opacity="0.5" d="M104.533 126.846C104.533 122.725 101.188 119.385 97.0667 119.385C92.9458 119.385 89.6 122.725 89.6 126.846C89.6 130.967 92.9458 134.308 97.0667 134.308C101.188 134.308 104.533 130.967 104.533 126.846Z" fill="#F0C300"/>
<path opacity="0.5" d="M119.467 126.846C119.467 122.725 122.812 119.385 126.933 119.385C131.054 119.385 134.4 122.725 134.4 126.846C134.4 130.967 131.054 134.308 126.933 134.308C122.812 134.308 119.467 130.967 119.467 126.846Z" fill="#F0C300"/>
<path opacity="0.5" d="M164.267 126.846C164.267 122.725 160.921 119.385 156.8 119.385C152.679 119.385 149.333 122.725 149.333 126.846C149.333 130.967 152.679 134.308 156.8 134.308C160.921 134.308 164.267 130.967 164.267 126.846Z" fill="#F0C300"/>
<path opacity="0.5" d="M179.2 126.846C179.2 122.725 182.546 119.385 186.667 119.385C190.788 119.385 194.133 122.725 194.133 126.846C194.133 130.967 190.788 134.308 186.667 134.308C182.546 134.308 179.2 130.967 179.2 126.846Z" fill="#F0C300"/>
<path opacity="0.5" d="M224 126.846C224 122.725 220.654 119.385 216.533 119.385C212.412 119.385 209.067 122.725 209.067 126.846C209.067 130.967 212.412 134.308 216.533 134.308C220.654 134.308 224 130.967 224 126.846Z" fill="#F0C300"/>
<path opacity="0.5" d="M0 156.692C0 152.571 3.34578 149.231 7.46667 149.231C11.5876 149.231 14.9333 152.571 14.9333 156.692C14.9333 160.813 11.5876 164.154 7.46667 164.154C3.34578 164.154 0 160.813 0 156.692Z" fill="#F0C300"/>
<path opacity="0.5" d="M44.8 156.692C44.8 152.571 41.4542 149.231 37.3333 149.231C33.2124 149.231 29.8667 152.571 29.8667 156.692C29.8667 160.813 33.2124 164.154 37.3333 164.154C41.4542 164.154 44.8 160.813 44.8 156.692Z" fill="#F0C300"/>
<path opacity="0.5" d="M59.7333 156.692C59.7333 152.571 63.0791 149.231 67.2 149.231C71.3209 149.231 74.6667 152.571 74.6667 156.692C74.6667 160.813 71.3209 164.154 67.2 164.154C63.0791 164.154 59.7333 160.813 59.7333 156.692Z" fill="#F0C300"/>
<path opacity="0.5" d="M104.533 156.692C104.533 152.571 101.188 149.231 97.0667 149.231C92.9458 149.231 89.6 152.571 89.6 156.692C89.6 160.813 92.9458 164.154 97.0667 164.154C101.188 164.154 104.533 160.813 104.533 156.692Z" fill="#F0C300"/>
<path opacity="0.5" d="M119.467 156.692C119.467 152.571 122.812 149.231 126.933 149.231C131.054 149.231 134.4 152.571 134.4 156.692C134.4 160.813 131.054 164.154 126.933 164.154C122.812 164.154 119.467 160.813 119.467 156.692Z" fill="#F0C300"/>
<path opacity="0.5" d="M164.267 156.692C164.267 152.571 160.921 149.231 156.8 149.231C152.679 149.231 149.333 152.571 149.333 156.692C149.333 160.813 152.679 164.154 156.8 164.154C160.921 164.154 164.267 160.813 164.267 156.692Z" fill="#F0C300"/>
<path opacity="0.5" d="M179.2 156.692C179.2 152.571 182.546 149.231 186.667 149.231C190.788 149.231 194.133 152.571 194.133 156.692C194.133 160.813 190.788 164.154 186.667 164.154C182.546 164.154 179.2 160.813 179.2 156.692Z" fill="#F0C300"/>
<path opacity="0.5" d="M224 156.692C224 152.571 220.654 149.231 216.533 149.231C212.412 149.231 209.067 152.571 209.067 156.692C209.067 160.813 212.412 164.154 216.533 164.154C220.654 164.154 224 160.813 224 156.692Z" fill="#F0C300"/>
<path opacity="0.5" d="M0 186.538C0 182.418 3.34577 179.077 7.46667 179.077C11.5876 179.077 14.9333 182.418 14.9333 186.538C14.9333 190.659 11.5876 194 7.46667 194C3.34577 194 0 190.659 0 186.538Z" fill="#F0C300"/>
<path opacity="0.5" d="M44.8 186.538C44.8 182.418 41.4542 179.077 37.3333 179.077C33.2124 179.077 29.8667 182.418 29.8667 186.538C29.8667 190.659 33.2124 194 37.3333 194C41.4542 194 44.8 190.659 44.8 186.538Z" fill="#F0C300"/>
<path opacity="0.5" d="M59.7333 186.538C59.7333 182.418 63.0791 179.077 67.2 179.077C71.3209 179.077 74.6667 182.418 74.6667 186.538C74.6667 190.659 71.3209 194 67.2 194C63.0791 194 59.7333 190.659 59.7333 186.538Z" fill="#F0C300"/>
<path opacity="0.5" d="M104.533 186.538C104.533 182.418 101.188 179.077 97.0667 179.077C92.9458 179.077 89.6 182.418 89.6 186.538C89.6 190.659 92.9458 194 97.0667 194C101.188 194 104.533 190.659 104.533 186.538Z" fill="#F0C300"/>
<path opacity="0.5" d="M119.467 186.538C119.467 182.418 122.812 179.077 126.933 179.077C131.054 179.077 134.4 182.418 134.4 186.538C134.4 190.659 131.054 194 126.933 194C122.812 194 119.467 190.659 119.467 186.538Z" fill="#F0C300"/>
<path opacity="0.5" d="M164.267 186.538C164.267 182.418 160.921 179.077 156.8 179.077C152.679 179.077 149.333 182.418 149.333 186.538C149.333 190.659 152.679 194 156.8 194C160.921 194 164.267 190.659 164.267 186.538Z" fill="#F0C300"/>
<path opacity="0.5" d="M179.2 186.538C179.2 182.418 182.546 179.077 186.667 179.077C190.788 179.077 194.133 182.418 194.133 186.538C194.133 190.659 190.788 194 186.667 194C182.546 194 179.2 190.659 179.2 186.538Z" fill="#F0C300"/>
<path opacity="0.5" d="M224 186.538C224 182.418 220.654 179.077 216.533 179.077C212.412 179.077 209.067 182.418 209.067 186.538C209.067 190.659 212.412 194 216.533 194C220.654 194 224 190.659 224 186.538Z" fill="#F0C300"/>
</g>
</svg>
