<svg width="512" height="512" viewBox="0 0 512 512" fill="none" xmlns="http://www.w3.org/2000/svg">
<g clip-path="url(#clip0_414_701)">
<path d="M511.999 192.506C511.999 182.059 503.498 173.558 493.05 173.558H445.835C441.693 173.558 438.335 176.916 438.335 181.058C438.335 185.2 441.693 188.558 445.835 188.558H493.05C495.227 188.558 496.999 190.328 496.999 192.506V452.455L393.543 325.249C389.929 320.806 384.571 318.257 378.843 318.257H291.447C287.305 318.257 283.947 321.615 283.947 325.757C283.947 329.899 287.305 333.257 291.447 333.257H378.842C380.036 333.257 381.152 333.788 381.905 334.714L488.732 466.064H120.564C119.37 466.064 118.253 465.533 117.5 464.606L15.9108 339.697C14.4908 337.95 15.0868 336.187 15.4088 335.51C15.7308 334.832 16.7238 333.257 18.9747 333.257H254.421C258.562 333.257 261.92 329.899 261.92 325.757C261.92 321.615 258.562 318.257 254.421 318.257H122.621V260.787C123.685 260.816 124.752 260.834 125.823 260.834H213.962C220.253 260.834 225.874 257.079 228.281 251.267C230.688 245.454 229.37 238.825 224.921 234.376L212.238 221.693C229.829 201.698 239.803 176.556 240.699 149.832H265.427C266.482 149.832 267.474 150.243 268.219 150.988L289.263 172.032C287.59 176.143 286.659 180.633 286.659 185.338C286.659 204.864 302.545 220.75 322.072 220.75C340.512 220.75 355.699 206.579 357.332 188.558H408.808C412.95 188.558 416.308 185.2 416.308 181.058C416.308 176.916 412.95 173.558 408.808 173.558H355.463C350.597 159.807 337.47 149.926 322.073 149.926C312.744 149.926 304.251 153.558 297.919 159.476L278.826 140.382C275.247 136.803 270.489 134.832 265.427 134.832H240.227C238.388 115.561 231.765 97.1584 220.763 81.0716C218.424 77.6526 213.757 76.7766 210.338 79.1146C206.919 81.4526 206.043 86.1205 208.381 89.5395C219.758 106.174 225.772 125.659 225.772 145.885C225.772 172.582 215.375 197.681 196.497 216.559C193.568 219.488 193.568 224.237 196.497 227.165L214.314 244.982C214.44 245.108 214.55 245.218 214.422 245.526C214.295 245.834 214.14 245.834 213.962 245.834H125.823C70.7112 245.834 25.8747 200.997 25.8737 145.886C25.8737 119.215 36.2766 94.1234 55.1684 75.2316C74.0602 56.3398 99.1519 45.9359 125.823 45.9359C146.998 45.9359 167.232 52.4789 184.339 64.8547C187.696 67.2837 192.385 66.5307 194.812 63.1747C197.24 59.8188 196.488 55.1298 193.132 52.7018C173.451 38.462 150.176 30.9351 125.823 30.9351C95.145 30.9351 66.2863 42.8989 44.5615 64.6237C22.8377 86.3495 10.8738 115.209 10.8738 145.886C10.8738 203.075 52.8574 250.637 107.621 259.388V318.257H18.9747C11.5918 318.257 5.03487 322.399 1.8629 329.067C-1.30806 335.734 -0.385075 343.434 4.27388 349.162L105.863 474.072C109.477 478.516 114.836 481.065 120.564 481.065H504.499C508.53 481.115 512.064 477.598 511.998 473.561V192.506H511.999ZM322.073 164.926C333.328 164.926 342.486 174.083 342.486 185.339C342.486 196.594 333.329 205.751 322.073 205.751C310.817 205.751 301.66 196.594 301.66 185.339C301.66 174.083 310.817 164.926 322.073 164.926Z" fill="#F0AD00"/>
<path d="M276.719 406.466L302.608 440.483C305.897 444.805 311.103 447.385 316.534 447.385H417.551C422.335 447.385 426.626 444.722 428.751 440.436C430.876 436.15 430.396 431.122 427.499 427.314L401.61 393.297C398.321 388.975 393.115 386.396 387.684 386.396H286.666C281.882 386.396 277.59 389.058 275.466 393.345C273.342 397.633 273.822 402.66 276.719 406.466ZM387.684 401.396C388.46 401.396 389.204 401.765 389.673 402.382L412.507 432.385H316.534C315.758 432.385 315.014 432.016 314.545 431.399L291.711 401.396H387.684Z" fill="#F0C300"/>
<path d="M202.616 439.883C202.616 444.025 205.974 447.383 210.116 447.383H256.003C260.145 447.383 263.503 444.025 263.503 439.883C263.503 435.741 260.145 432.383 256.003 432.383H210.116C205.974 432.383 202.616 435.741 202.616 439.883Z" fill="#F0C300"/>
<path d="M239.257 422.507C243.399 422.507 246.757 419.149 246.757 415.007C246.757 410.865 243.399 407.507 239.257 407.507H219.78C215.638 407.507 212.28 410.865 212.28 415.007C212.28 419.149 215.638 422.507 219.78 422.507H239.257Z" fill="#F0C300"/>
<path d="M178.917 115.292C178.917 109.282 176.576 103.631 172.327 99.3829C168.077 95.133 162.427 92.792 156.417 92.792C150.407 92.792 144.756 95.133 140.507 99.3829L125.823 114.068L111.14 99.3819C106.89 95.132 101.24 92.792 95.2298 92.792C89.2199 92.792 83.5689 95.133 79.32 99.3819C75.07 103.632 72.73 109.282 72.73 115.292C72.73 121.302 75.07 126.952 79.32 131.202L94.0038 145.886L79.32 160.57C75.07 164.82 72.73 170.47 72.73 176.48C72.73 182.49 75.071 188.141 79.32 192.389C83.5699 196.639 89.2199 198.98 95.2298 198.98C101.24 198.98 106.891 196.639 111.14 192.39L125.824 177.705L140.508 192.39C144.758 196.64 150.408 198.98 156.418 198.98C162.428 198.98 168.078 196.64 172.328 192.39C176.578 188.14 178.918 182.49 178.918 176.48C178.918 170.47 176.578 164.82 172.328 160.57L157.643 145.885L172.328 131.201C176.577 126.952 178.917 121.302 178.917 115.292ZM161.72 120.595L141.732 140.583C138.803 143.511 138.803 148.26 141.732 151.188L161.72 171.176C163.137 172.593 163.917 174.476 163.917 176.479C163.917 178.482 163.137 180.366 161.72 181.782C160.303 183.198 158.42 183.979 156.417 183.979C154.414 183.979 152.53 183.199 151.114 181.782L131.126 161.794C129.72 160.387 127.812 159.597 125.824 159.597C123.835 159.597 121.927 160.387 120.521 161.794L100.533 181.782C99.1168 183.198 97.2338 183.978 95.2298 183.978C93.2258 183.978 91.3429 183.198 89.9269 181.781C88.5099 180.365 87.7299 178.482 87.7299 176.478C87.7299 174.475 88.5099 172.591 89.9269 171.175L109.914 151.187C112.843 148.258 112.843 143.509 109.914 140.582L89.9269 120.594C88.5099 119.177 87.7299 117.294 87.7299 115.291C87.7299 113.288 88.5099 111.404 89.9269 109.988C91.3429 108.571 93.2258 107.791 95.2298 107.791C97.2338 107.791 99.1168 108.571 100.533 109.988L120.52 129.976C121.926 131.383 123.834 132.173 125.823 132.173C127.811 132.173 129.719 131.383 131.125 129.976L151.113 109.988C152.53 108.571 154.412 107.791 156.416 107.791C158.42 107.791 160.302 108.571 161.719 109.989C163.136 111.405 163.916 113.288 163.916 115.292C163.917 117.295 163.137 119.178 161.72 120.595Z" fill="#F0C300"/>
<path d="M419.826 159.371C436.107 159.371 449.353 146.125 449.353 129.844C449.353 113.563 436.107 100.317 419.826 100.317C403.545 100.317 390.299 113.563 390.299 129.844C390.299 146.125 403.545 159.371 419.826 159.371ZM419.826 115.317C427.836 115.317 434.353 121.834 434.353 129.844C434.353 137.854 427.836 144.371 419.826 144.371C411.816 144.371 405.299 137.854 405.299 129.844C405.299 121.834 411.816 115.317 419.826 115.317Z" fill="#F0C300"/>
<path d="M344.226 104.247C345.69 105.711 347.61 106.444 349.529 106.444C351.448 106.444 353.368 105.712 354.832 104.247L358.89 100.189L362.948 104.247C364.412 105.712 366.332 106.444 368.251 106.444C370.17 106.444 372.09 105.712 373.554 104.247C376.483 101.318 376.483 96.5704 373.554 93.6414L369.496 89.5834L373.554 85.5254C376.483 82.5964 376.483 77.8474 373.554 74.9194C370.625 71.9904 365.876 71.9904 362.948 74.9194L358.89 78.9774L354.832 74.9194C351.903 71.9904 347.154 71.9904 344.226 74.9194C341.297 77.8484 341.297 82.5964 344.226 85.5254L348.284 89.5834L344.226 93.6414C341.296 96.5704 341.296 101.319 344.226 104.247Z" fill="#F0C300"/>
<path d="M28.3166 295.191C29.7806 296.655 31.7006 297.388 33.6196 297.388C35.5386 297.388 37.4586 296.656 38.9226 295.191L45.9876 288.126L53.0526 295.191C54.5166 296.655 56.4366 297.388 58.3556 297.388C60.2746 297.388 62.1946 296.656 63.6586 295.191C66.5876 292.262 66.5876 287.513 63.6586 284.585L56.5936 277.52L63.6586 270.455C66.5876 267.526 66.5876 262.777 63.6586 259.849C60.7296 256.92 55.9806 256.92 53.0526 259.849L45.9876 266.914L38.9226 259.849C35.9936 256.92 31.2446 256.92 28.3166 259.849C25.3876 262.778 25.3876 267.527 28.3166 270.455L35.3816 277.52L28.3166 284.585C25.3866 287.513 25.3866 292.262 28.3166 295.191Z" fill="#F0C300"/>
</g>
<defs>
<clipPath id="clip0_414_701">
<rect width="512" height="512" fill="white"/>
</clipPath>
</defs>
</svg>
