<svg width="25" height="24" viewBox="0 0 25 24" fill="none" xmlns="http://www.w3.org/2000/svg">
<path d="M22 12C22 6.47715 17.5228 2 12 2C6.47715 2 2 6.47715 2 12C2 17.5228 6.47715 22 12 22C12.8632 22 13.701 21.8906 14.5 21.685" stroke="#292D32" stroke-width="1.5" stroke-linecap="round" stroke-linejoin="round"/>
<path d="M14.8751 8.469C14.1636 8.12343 13.376 7.96435 12.5862 8.0067C11.7964 8.04904 11.0304 8.29144 10.36 8.71111C9.68954 9.13077 9.1368 9.71395 8.75363 10.4059C8.37046 11.0978 8.16943 11.8757 8.16943 12.6667C8.16943 13.4576 8.37046 14.2355 8.75363 14.9275C9.1368 15.6194 9.68954 16.2026 10.36 16.6222C11.0304 17.0419 11.7964 17.2843 12.5862 17.3266C12.9355 17.3454 13.2843 17.3247 13.6263 17.2659" stroke="#292D32" stroke-width="1.5" stroke-linecap="round" stroke-linejoin="round"/>
<path d="M7 11.5H13.4167" stroke="#292D32" stroke-width="1.5" stroke-linecap="round" stroke-linejoin="round"/>
<path d="M7 13.8333H13.4167" stroke="#292D32" stroke-width="1.5" stroke-linecap="round" stroke-linejoin="round"/>
<path d="M24 18C24 18.75 23.79 19.46 23.42 20.06C23.21 20.42 22.94 20.74 22.63 21C21.93 21.63 21.01 22 20 22C18.54 22 17.27 21.22 16.58 20.06C16.21 19.46 16 18.75 16 18C16 16.99 16.38 16.07 17 15.36C17.73 14.53 18.8 14 20 14C22.21 14 24 15.79 24 18Z" stroke="#292D32" stroke-width="1.5" stroke-miterlimit="10" stroke-linecap="round" stroke-linejoin="round"/>
<path d="M21.0712 19.0399L18.9612 16.9299" stroke="#292D32" stroke-width="1.5" stroke-miterlimit="10" stroke-linecap="round" stroke-linejoin="round"/>
<path d="M21.0399 16.96L18.9299 19.0699" stroke="#292D32" stroke-width="1.5" stroke-miterlimit="10" stroke-linecap="round" stroke-linejoin="round"/>
</svg>
