<svg width="51" height="47" viewBox="0 0 51 47" fill="none" xmlns="http://www.w3.org/2000/svg">
<path d="M44.7273 23.5C44.7273 11.6259 35.1624 2 23.3636 2C11.5648 2 2 11.6259 2 23.5C2 35.3741 11.5648 45 23.3636 45C25.2079 45 26.9975 44.7648 28.7045 44.3227M37.1248 36.399L39.2398 38.5274L43.7903 34.292M29.5057 15.9084C27.9858 15.1654 26.3032 14.8233 24.6159 14.9144C22.9286 15.0054 21.292 15.5266 19.8598 16.4289C18.4275 17.3312 17.2467 18.585 16.4281 20.0726C15.6095 21.5602 15.18 23.2328 15.18 24.9333C15.18 26.6338 15.6095 28.3064 16.4281 29.794C17.2467 31.2817 18.4275 32.5355 19.8598 33.4378C21.292 34.3401 22.9286 34.8612 24.6159 34.9523C25.362 34.9925 26.1072 34.9481 26.8378 34.8218M12.6818 22.425H26.3902M12.6818 27.4417H26.3902M49 36.4C49 38.0125 48.5514 39.539 47.7609 40.829C46.2868 43.323 43.5736 45 40.4545 45C37.3355 45 34.6222 43.323 33.1482 40.829C32.3577 39.539 31.9091 38.0125 31.9091 36.4C31.9091 31.6485 35.7332 27.8 40.4545 27.8C45.1759 27.8 49 31.6485 49 36.4Z" stroke="#F0C300" stroke-width="3" stroke-linecap="round" stroke-linejoin="round"/>
</svg>
