<svg width="24" height="24" viewBox="0 0 24 24" fill="none" xmlns="http://www.w3.org/2000/svg">
    <path d="M12 21C16.9706 21 21 16.9706 21 12C21 7.02944 16.9706 3 12 3C7.02944 3 3 7.02944 3 12C3 16.9706 7.02944 21 12 21Z" stroke="black" stroke-width="2" stroke-linecap="round" stroke-linejoin="round"/>
    <path d="M14.401 8C13.732 7.372 12.901 7 12 7C9.79 7 8 9.239 8 12C8 14.761 9.79 17 12 17C12.9 17 13.731 16.628 14.4 16M7 10.5H11M7 13.5H11" stroke="black" stroke-width="2" stroke-linecap="round" stroke-linejoin="round"/>
</svg>