<svg width="24" height="24" viewBox="0 0 24 24" fill="none" xmlns="http://www.w3.org/2000/svg">
<path d="M8 2V5" stroke="#292D32" stroke-width="1.5" stroke-miterlimit="10" stroke-linecap="round" stroke-linejoin="round"/>
<path d="M16 2V5" stroke="#292D32" stroke-width="1.5" stroke-miterlimit="10" stroke-linecap="round" stroke-linejoin="round"/>
<path d="M16 3.5C19.33 3.68 21 4.95 21 9.65V15.83C21 19.95 20 22.01 15 22.01H9C4 22.01 3 19.95 3 15.83V9.65C3 4.95 4.67 3.69 8 3.5H16Z" stroke="#292D32" stroke-width="1.5" stroke-miterlimit="10" stroke-linecap="round" stroke-linejoin="round"/>
<path d="M13.8902 17.2362C13.5862 17.2884 13.2762 17.3068 12.9657 17.2901C12.2637 17.2525 11.5828 17.037 10.9869 16.664C10.391 16.291 9.89966 15.7726 9.55907 15.1576C9.21848 14.5426 9.03979 13.8511 9.03979 13.148C9.03979 12.445 9.21848 11.7535 9.55907 11.1385C9.89966 10.5235 10.391 10.0051 10.9869 9.63208C11.5828 9.25905 12.2637 9.04359 12.9657 9.00595C13.2762 8.98931 13.5862 9.00767 13.8902 9.0599" stroke="#292D32" stroke-width="1.3" stroke-linecap="round" stroke-linejoin="round"/>
<path d="M8 12.1111H12.8319" stroke="#292D32" stroke-width="1.3" stroke-linecap="round" stroke-linejoin="round"/>
<path d="M8 14.1851H12.8097" stroke="#292D32" stroke-width="1.3" stroke-linecap="round" stroke-linejoin="round"/>
</svg>
