<svg width="21" height="21" viewBox="0 0 21 21" fill="none" xmlns="http://www.w3.org/2000/svg">
<path d="M19.25 6.34375H14C13.6413 6.34375 13.3438 6.04625 13.3438 5.6875C13.3438 5.32875 13.6413 5.03125 14 5.03125H19.25C19.6088 5.03125 19.9063 5.32875 19.9063 5.6875C19.9063 6.04625 19.6088 6.34375 19.25 6.34375Z" fill="#383838"/>
<path d="M5.25 6.34375H1.75C1.39125 6.34375 1.09375 6.04625 1.09375 5.6875C1.09375 5.32875 1.39125 5.03125 1.75 5.03125H5.25C5.60875 5.03125 5.90625 5.32875 5.90625 5.6875C5.90625 6.04625 5.60875 6.34375 5.25 6.34375Z" fill="#383838"/>
<path d="M8.75 9.40625C6.7025 9.40625 5.03125 7.735 5.03125 5.6875C5.03125 3.64 6.7025 1.96875 8.75 1.96875C10.7975 1.96875 12.4688 3.64 12.4688 5.6875C12.4688 7.735 10.7975 9.40625 8.75 9.40625ZM8.75 3.28125C7.42 3.28125 6.34375 4.3575 6.34375 5.6875C6.34375 7.0175 7.42 8.09375 8.75 8.09375C10.08 8.09375 11.1562 7.0175 11.1562 5.6875C11.1562 4.3575 10.08 3.28125 8.75 3.28125Z" fill="#383838"/>
<path d="M19.25 15.9688H15.75C15.3913 15.9688 15.0938 15.6712 15.0938 15.3125C15.0938 14.9538 15.3913 14.6562 15.75 14.6562H19.25C19.6088 14.6562 19.9063 14.9538 19.9063 15.3125C19.9063 15.6712 19.6088 15.9688 19.25 15.9688Z" fill="#383838"/>
<path d="M7 15.9688H1.75C1.39125 15.9688 1.09375 15.6712 1.09375 15.3125C1.09375 14.9538 1.39125 14.6562 1.75 14.6562H7C7.35875 14.6562 7.65625 14.9538 7.65625 15.3125C7.65625 15.6712 7.35875 15.9688 7 15.9688Z" fill="#383838"/>
<path d="M12.25 19.0312C10.2025 19.0312 8.53125 17.36 8.53125 15.3125C8.53125 13.265 10.2025 11.5938 12.25 11.5938C14.2975 11.5938 15.9688 13.265 15.9688 15.3125C15.9688 17.36 14.2975 19.0312 12.25 19.0312ZM12.25 12.9062C10.92 12.9062 9.84375 13.9825 9.84375 15.3125C9.84375 16.6425 10.92 17.7187 12.25 17.7187C13.58 17.7187 14.6563 16.6425 14.6563 15.3125C14.6563 13.9825 13.58 12.9062 12.25 12.9062Z" fill="#383838"/>
</svg>
