<svg width="21" height="21" viewBox="0 0 21 21" fill="none" xmlns="http://www.w3.org/2000/svg">
<path d="M15.75 9.40625C15.3913 9.40625 15.0938 9.10875 15.0938 8.75V7C15.0938 4.24375 14.315 2.40625 10.5 2.40625C6.685 2.40625 5.90625 4.24375 5.90625 7V8.75C5.90625 9.10875 5.60875 9.40625 5.25 9.40625C4.89125 9.40625 4.59375 9.10875 4.59375 8.75V7C4.59375 4.4625 5.20625 1.09375 10.5 1.09375C15.7938 1.09375 16.4062 4.4625 16.4062 7V8.75C16.4062 9.10875 16.1087 9.40625 15.75 9.40625Z" fill="#666666"/>
<path d="M10.5 16.8438C8.93375 16.8438 7.65625 15.5662 7.65625 14C7.65625 12.4338 8.93375 11.1562 10.5 11.1562C12.0662 11.1562 13.3438 12.4338 13.3438 14C13.3438 15.5662 12.0662 16.8438 10.5 16.8438ZM10.5 12.4688C9.66 12.4688 8.96875 13.16 8.96875 14C8.96875 14.84 9.66 15.5312 10.5 15.5312C11.34 15.5312 12.0312 14.84 12.0312 14C12.0312 13.16 11.34 12.4688 10.5 12.4688Z" fill="#666666"/>
<path d="M14.875 19.9062H6.125C2.26625 19.9062 1.09375 18.7337 1.09375 14.875V13.125C1.09375 9.26625 2.26625 8.09375 6.125 8.09375H14.875C18.7337 8.09375 19.9062 9.26625 19.9062 13.125V14.875C19.9062 18.7337 18.7337 19.9062 14.875 19.9062ZM6.125 9.40625C2.9925 9.40625 2.40625 10.0013 2.40625 13.125V14.875C2.40625 17.9987 2.9925 18.5938 6.125 18.5938H14.875C18.0075 18.5938 18.5938 17.9987 18.5938 14.875V13.125C18.5938 10.0013 18.0075 9.40625 14.875 9.40625H6.125Z" fill="#666666"/>
</svg>
