<svg width="14" height="14" viewBox="0 0 14 14" fill="none" xmlns="http://www.w3.org/2000/svg">
<path d="M3.5 5.83334V4.66667C3.5 2.73584 4.08333 1.16667 7 1.16667C9.91667 1.16667 10.5 2.73584 10.5 4.66667V5.83334" stroke="#666666" stroke-linecap="round" stroke-linejoin="round"/>
<path d="M6.99999 10.7917C7.80541 10.7917 8.45832 10.1387 8.45832 9.33333C8.45832 8.52792 7.80541 7.875 6.99999 7.875C6.19457 7.875 5.54166 8.52792 5.54166 9.33333C5.54166 10.1387 6.19457 10.7917 6.99999 10.7917Z" stroke="#666666" stroke-linecap="round" stroke-linejoin="round"/>
<path d="M9.91666 12.8333H4.08332C1.74999 12.8333 1.16666 12.25 1.16666 9.91666V8.75C1.16666 6.41666 1.74999 5.83333 4.08332 5.83333H9.91666C12.25 5.83333 12.8333 6.41666 12.8333 8.75V9.91666C12.8333 12.25 12.25 12.8333 9.91666 12.8333Z" stroke="#666666" stroke-linecap="round" stroke-linejoin="round"/>
</svg>
