<svg width="94" height="94" viewBox="0 0 94 94" fill="none" xmlns="http://www.w3.org/2000/svg">
<path fill-rule="evenodd" clip-rule="evenodd" d="M15.2176 20.512C12.5545 22.9849 10.7709 26.9974 10.7709 33.2917V60.7084C10.7709 67.0027 12.5545 71.0152 15.2176 73.4881C17.9202 75.9976 21.992 77.3542 27.4167 77.3542H47C48.6224 77.3542 49.9375 78.6694 49.9375 80.2917C49.9375 81.914 48.6224 83.2292 47 83.2292H27.4167C21.0914 83.2292 15.3716 81.6483 11.22 77.7932C7.02895 73.9016 4.89587 68.1224 4.89587 60.7084V33.2917C4.89587 25.8777 7.02895 20.0985 11.22 16.2068C15.3716 12.3518 21.0914 10.7709 27.4167 10.7709H66.5834C72.9087 10.7709 78.6285 12.3518 82.7801 16.2068C86.9711 20.0985 89.1042 25.8777 89.1042 33.2917V45.0417C89.1042 46.664 87.789 47.9792 86.1667 47.9792C84.5444 47.9792 83.2292 46.664 83.2292 45.0417V33.2917C83.2292 26.9974 81.4456 22.9849 78.7825 20.512C76.0799 18.0025 72.0081 16.6459 66.5834 16.6459H27.4167C21.992 16.6459 17.9202 18.0025 15.2176 20.512Z" fill="#292D32"/>
<path fill-rule="evenodd" clip-rule="evenodd" d="M68.8786 33.4167C69.8911 34.6844 69.6843 36.5327 68.4167 37.5452L56.1538 47.3398C51.0489 51.4039 42.9121 51.4039 37.8071 47.3398L37.7999 47.334L25.5799 37.5424C24.3139 36.5279 24.1099 34.6792 25.1244 33.4132C26.1388 32.1471 27.9875 31.9432 29.2536 32.9576L41.4697 42.7462C44.4331 45.1023 49.5308 45.1018 52.4932 42.7446C52.4937 42.7442 52.4928 42.745 52.4932 42.7446L64.7501 32.9548C66.0178 31.9423 67.8662 32.1491 68.8786 33.4167Z" fill="#292D32"/>
<path fill-rule="evenodd" clip-rule="evenodd" d="M78.8557 52.7044C81.4533 52.4376 83.8435 53.6043 85.9722 55.733C88.113 57.8738 89.2938 60.2691 89.0361 62.8729C88.7938 65.3213 87.3337 67.2207 85.9722 68.5822L72.1369 82.4174C71.5629 83.0189 70.8566 83.4564 70.2765 83.7464C69.6661 84.0517 68.9241 84.3287 68.1773 84.4466L68.1287 84.4543L62.8471 85.1972C62.8459 85.1974 62.8483 85.1971 62.8471 85.1972C61.1179 85.4433 59.3319 84.9888 58.0437 83.7005C56.7554 82.4122 56.3004 80.6298 56.5465 78.9004C56.5467 78.8993 56.5464 78.9015 56.5465 78.9004L57.2972 73.5668C57.417 72.8081 57.7001 72.0706 58.004 71.4701C58.3079 70.8694 58.7397 70.1945 59.2971 69.6371C59.2971 69.6371 59.2971 69.6371 59.2971 69.6371L73.162 55.7721C74.5237 54.4104 76.4191 52.9547 78.8557 52.7044ZM79.456 58.5486C79.0334 58.592 78.3437 58.8988 77.3163 59.9263L63.4566 73.7861C63.4545 73.7886 63.4327 73.8134 63.3962 73.8665C63.3497 73.934 63.2971 74.0218 63.2463 74.1223C63.1954 74.2227 63.1558 74.3175 63.1287 74.3951C63.1117 74.4437 63.1037 74.474 63.1008 74.4858L62.4198 79.3245L67.261 78.6431C67.2735 78.6401 67.3093 78.6312 67.3672 78.6112C67.4508 78.5825 67.5492 78.5417 67.649 78.4918C67.7496 78.4415 67.8296 78.393 67.8829 78.3559C67.8954 78.3473 67.9047 78.3404 67.9112 78.3355C67.925 78.3211 67.9389 78.3069 67.9529 78.2929L81.8179 64.428C82.8456 63.4003 83.148 62.7147 83.1897 62.2942C83.2159 62.029 83.2021 61.2714 81.8179 59.8872C80.4608 58.5301 79.7177 58.5218 79.456 58.5486Z" fill="#292D32"/>
<path fill-rule="evenodd" clip-rule="evenodd" d="M72.4555 57.0164C74.0187 56.5821 75.6378 57.4973 76.072 59.0605C76.9713 62.2978 79.4856 64.8121 82.7229 65.7114C84.2861 66.1456 85.2013 67.7648 84.7671 69.3279C84.3328 70.8911 82.7137 71.8062 81.1505 71.372C75.9278 69.9213 71.8621 65.8556 70.4114 60.6329C69.9772 59.0697 70.8924 57.4506 72.4555 57.0164Z" fill="#292D32"/>
</svg>
