<svg width="94" height="94" viewBox="0 0 94 94" fill="none" xmlns="http://www.w3.org/2000/svg">
<path fill-rule="evenodd" clip-rule="evenodd" d="M47 6.55814C24.677 6.55814 6.55814 24.677 6.55814 47C6.55814 69.323 24.677 87.4419 47 87.4419C69.323 87.4419 87.4419 69.323 87.4419 47C87.4419 45.189 88.91 43.7209 90.7209 43.7209C92.5319 43.7209 94 45.189 94 47C94 72.9449 72.9449 94 47 94C21.0551 94 0 72.9449 0 47C0 21.0551 21.0551 0 47 0C48.811 0 50.2791 1.46809 50.2791 3.27907C50.2791 5.09005 48.811 6.55814 47 6.55814Z" fill="#383838"/>
<path fill-rule="evenodd" clip-rule="evenodd" d="M68.8815 4.74744C70.7407 4.74744 72.2479 6.19665 72.2479 7.98435V22.011H86.8356C88.6948 22.011 90.202 23.4602 90.202 25.2479C90.202 27.0356 88.6948 28.4848 86.8356 28.4848H68.8815C67.0223 28.4848 65.5151 27.0356 65.5151 25.2479V7.98435C65.5151 6.19665 67.0223 4.74744 68.8815 4.74744Z" fill="#383838"/>
<path fill-rule="evenodd" clip-rule="evenodd" d="M93.0373 0.962656C94.3209 2.2462 94.3209 4.32723 93.0373 5.61077L71.1259 27.5222C69.8424 28.8057 67.7613 28.8057 66.4778 27.5222C65.1943 26.2387 65.1943 24.1576 66.4778 22.8741L88.3892 0.962656C89.6728 -0.320885 91.7538 -0.320885 93.0373 0.962656Z" fill="#383838"/>
<path fill-rule="evenodd" clip-rule="evenodd" d="M50.9626 26.6158C52.5147 26.532 54.065 26.6244 55.5849 26.8874C57.1142 27.1521 58.141 28.6153 57.8782 30.1556C57.6155 31.6959 56.1627 32.7301 54.6334 32.4654C53.5253 32.2737 52.3951 32.2063 51.2635 32.2674C48.7045 32.4056 46.2223 33.1966 44.0502 34.5661C41.878 35.9357 40.087 37.8388 38.8455 40.0968C37.604 42.3548 36.9527 44.8936 36.9527 47.4747C36.9527 50.0558 37.604 52.5946 38.8455 54.8526C40.087 57.1106 41.878 59.0137 44.0502 60.3833C46.2223 61.7528 48.7045 62.5438 51.2635 62.682C52.3951 62.7431 53.5253 62.6757 54.6334 62.484C56.1627 62.2193 57.6155 63.2535 57.8782 64.7938C58.141 66.3341 57.1142 67.7973 55.5849 68.062C54.065 68.325 52.5147 68.4175 50.9626 68.3336C47.4526 68.1441 44.048 67.0591 41.0685 65.1806C38.0891 63.302 35.6326 60.6916 33.9297 57.5945C32.2268 54.4973 31.3334 51.0151 31.3334 47.4747C31.3334 43.9344 32.2268 40.4521 33.9297 37.3549C35.6326 34.2578 38.0891 31.6474 41.0685 29.7689C44.048 27.8903 47.4526 26.8053 50.9626 26.6158Z" fill="#383838"/>
<path fill-rule="evenodd" clip-rule="evenodd" d="M26.5859 43.202C26.5859 41.3666 27.8927 39.8788 29.5047 39.8788H51.2024C52.8144 39.8788 54.1212 41.3666 54.1212 43.202C54.1212 45.0374 52.8144 46.5252 51.2024 46.5252H29.5047C27.8927 46.5252 26.5859 45.0374 26.5859 43.202Z" fill="#383838"/>
<path fill-rule="evenodd" clip-rule="evenodd" d="M26.5859 52.2221C26.5859 50.649 27.8974 49.3737 29.5153 49.3737H51.1918C52.8097 49.3737 54.1212 50.649 54.1212 52.2221C54.1212 53.7953 52.8097 55.0706 51.1918 55.0706H29.5153C27.8974 55.0706 26.5859 53.7953 26.5859 52.2221Z" fill="#383838"/>
</svg>
