<svg width="17" height="17" viewBox="0 0 17 17" fill="none" xmlns="http://www.w3.org/2000/svg">
<path d="M8.49992 8.5C10.4559 8.5 12.0416 6.91434 12.0416 4.95833C12.0416 3.00233 10.4559 1.41667 8.49992 1.41667C6.54391 1.41667 4.95825 3.00233 4.95825 4.95833C4.95825 6.91434 6.54391 8.5 8.49992 8.5Z" stroke="#292D32" stroke-width="1.3" stroke-linecap="round" stroke-linejoin="round"/>
<path d="M2.41553 15.5833C2.41553 12.8421 5.14261 10.625 8.50011 10.625C9.18011 10.625 9.83887 10.7171 10.4551 10.8871" stroke="#292D32" stroke-width="1.3" stroke-linecap="round" stroke-linejoin="round"/>
<path d="M15.5834 12.75C15.5834 12.9767 15.5551 13.1962 15.4984 13.4087C15.4347 13.6921 15.3213 13.9683 15.1726 14.2092C14.6838 15.0308 13.7842 15.5833 12.7501 15.5833C12.0205 15.5833 11.3617 15.3071 10.8659 14.8537C10.6534 14.6696 10.4692 14.45 10.3276 14.2092C10.0655 13.7842 9.91675 13.2812 9.91675 12.75C9.91675 11.985 10.2213 11.2838 10.7172 10.7738C11.2343 10.2425 11.9567 9.91666 12.7501 9.91666C13.5859 9.91666 14.3438 10.2779 14.8538 10.8588C15.3072 11.3617 15.5834 12.0275 15.5834 12.75Z" stroke="#292D32" stroke-width="1.3" stroke-miterlimit="10" stroke-linecap="round" stroke-linejoin="round"/>
<path d="M13.8054 12.7358H11.6946" stroke="#292D32" stroke-width="1.3" stroke-miterlimit="10" stroke-linecap="round" stroke-linejoin="round"/>
<path d="M12.75 11.7017V13.8196" stroke="#292D32" stroke-width="1.3" stroke-miterlimit="10" stroke-linecap="round" stroke-linejoin="round"/>
</svg>
